<svg width="20" height="19" viewBox="0 0 20 19" fill="none" xmlns="http://www.w3.org/2000/svg">
<path d="M15.0186 14.4258L15.0195 15.7168L13.2324 13.9629C14.0218 13.9586 14.6823 13.9543 15.0176 13.9531L15.0186 14.4258ZM18.5098 4.54004C18.7438 4.54022 19 4.73257 19 5.1084V12.9922C19 13.172 18.9403 13.2574 18.8887 13.3047C18.8265 13.3615 18.7049 13.4247 18.5098 13.4248H16.5576C16.6847 13.323 16.7977 13.2172 16.8926 13.1152C17.2623 12.7178 17.6444 12.0988 17.6445 11.4082V4.54004H18.5098ZM1.48926 1H14.5371C14.7355 1.00005 15.0272 1.19873 15.0273 1.6123V10.6182C15.0273 11.0321 14.7358 11.2305 14.5361 11.2305H7.37207L7.08105 11.5146L4.97656 13.5645V11.2305H1.49023C1.29189 11.2302 1 11.0319 1 10.6182V1.6123C1.00012 1.24948 1.22419 1.05218 1.41211 1.00879L1.48926 1Z" stroke="black" stroke-width="2"/>
</svg>
