<svg width="216" height="196" viewBox="0 0 216 196" fill="none" xmlns="http://www.w3.org/2000/svg">
<path d="M186.132 16.4476L5.16016 69.374L9.95357 85.888L190.925 32.9616L186.132 16.4476Z" fill="#111111"/>
<rect x="0.559838" y="0.301233" width="188.375" height="113.543" transform="matrix(0.957441 -0.28863 0.286644 0.958037 -0.0625203 54.8051)" stroke="black" stroke-width="0.9"/>
<ellipse cx="6.3707" cy="6.3934" rx="6.3707" ry="6.3934" transform="matrix(0.939278 -0.343158 0.340885 0.940105 164.949 56.1365)" fill="#4C6AA3"/>
<path d="M188.179 71.9316C187.77 70.8053 187.122 69.7791 186.271 68.9116C185.42 68.0441 184.383 67.3522 183.219 66.8755C182.056 66.3988 180.788 66.1466 179.488 66.1333C178.188 66.1201 176.883 66.3459 175.645 66.798C174.407 67.2502 173.262 67.9197 172.275 68.7684C171.288 69.6172 170.479 70.6284 169.892 71.7445C169.306 72.8607 168.955 74.0597 168.858 75.2733C168.762 76.4868 168.923 77.6912 169.331 78.8174L178.755 75.3745L188.179 71.9316Z" fill="#4C6AA3"/>
<path d="M26.9578 55.3409C26.9118 55.1826 26.8571 55.0269 26.794 54.8746C26.3647 53.8286 25.5654 52.9788 24.5497 52.4885C23.5341 51.9981 22.3738 51.9018 21.2917 52.218C20.2096 52.5342 19.2821 53.2407 18.6874 54.2017C18.0928 55.1626 17.8728 56.3103 18.07 57.4241C18.0976 57.5866 18.1345 57.7474 18.1804 57.9057C18.4585 58.8585 19.0365 59.6952 19.828 60.2905C20.6195 60.8859 21.5819 61.2079 22.5709 61.2083C23.0028 61.2092 23.4325 61.1474 23.8467 61.0248C25.0092 60.6838 25.9896 59.894 26.5728 58.8285C27.1561 57.7629 27.2945 56.5087 26.9578 55.3409ZM23.6334 60.2909C22.6639 60.5733 21.6223 60.4583 20.7372 59.9711C19.852 59.4838 19.1955 58.6641 18.9115 57.6917C18.8669 57.5333 18.8313 57.3725 18.8048 57.2101C18.662 56.2924 18.857 55.3539 19.3535 54.57C19.85 53.7862 20.6139 53.2108 21.5024 52.9513C22.3909 52.6918 23.3432 52.766 24.1811 53.1601C25.019 53.5542 25.6853 54.2411 26.0552 55.0925C26.1242 55.242 26.1815 55.3966 26.2267 55.555C26.5077 56.5282 26.3924 57.5735 25.9062 58.4615C25.42 59.3495 24.6025 60.0074 23.6334 60.2909V60.2909Z" fill="#4C6AA3"/>
<path d="M15.7501 58.6166C15.5064 57.7765 15.5298 56.8811 15.8171 56.055C16.1043 55.2289 16.6411 54.5133 17.3527 54.0079C16.686 53.9753 16.0213 54.1031 15.4138 54.3806C14.8063 54.658 14.2737 55.0772 13.8603 55.6032C13.4469 56.1291 13.1646 56.7466 13.0371 57.4042C12.9096 58.0618 12.9405 58.7405 13.1272 59.3837C13.3139 60.0269 13.651 60.616 14.1104 61.1019C14.5699 61.5879 15.1384 61.9566 15.7685 62.1773C16.3987 62.3981 17.0722 62.4645 17.7331 62.371C18.394 62.2776 19.0231 62.0269 19.568 61.64C18.6973 61.5973 17.8617 61.2831 17.1773 60.7412C16.493 60.1993 15.9941 59.4566 15.7501 58.6166Z" fill="#4C6AA3"/>
<path d="M133.538 75.8373C133.457 75.5448 133.319 75.2712 133.133 75.0321C132.946 74.7931 132.714 74.5933 132.451 74.4442C132.187 74.2951 131.897 74.1996 131.597 74.1632C131.297 74.1267 130.992 74.1501 130.701 74.2319L105.419 81.33L102.697 82.0945H119.795L122.517 81.33L131.942 78.685C132.53 78.5193 133.028 78.1264 133.327 77.5925C133.626 77.0585 133.702 76.4273 133.538 75.8373Z" fill="#CCCCCC"/>
<path d="M115.652 70.5357C115.487 69.9458 115.095 69.4456 114.563 69.1453C114.031 68.845 113.402 68.769 112.814 68.9342L74.8792 79.5833C74.3491 79.734 73.8902 80.0699 73.585 80.5304C73.2799 80.9908 73.1487 81.5456 73.2151 82.0946H83.0359L85.7623 81.3301L114.056 73.3872C114.644 73.221 115.142 72.8274 115.441 72.2927C115.74 71.7581 115.816 71.1262 115.652 70.5357Z" fill="#CCCCCC"/>
<rect x="27.2342" y="81.9715" width="188.316" height="113.578" fill="white" stroke="black" stroke-width="0.9"/>
<path d="M47.2825 96.2372C46.3787 96.2372 45.4952 95.9682 44.7438 95.4642C43.9923 94.9601 43.4066 94.2438 43.0607 93.4056C42.7149 92.5675 42.6244 91.6452 42.8007 90.7555C42.977 89.8657 43.4122 89.0484 44.0513 88.4069C44.6904 87.7655 45.5046 87.3286 46.391 87.1516C47.2774 86.9746 48.1962 87.0655 49.0312 87.4126C49.8662 87.7598 50.5799 88.3477 51.082 89.102C51.5841 89.8563 51.8521 90.7431 51.8521 91.6503C51.8507 92.8664 51.3688 94.0323 50.5122 94.8922C49.6555 95.7521 48.494 96.2358 47.2825 96.2372ZM47.2825 87.8279C46.5293 87.8279 45.7931 88.0521 45.1669 88.4721C44.5407 88.8921 44.0526 89.4891 43.7644 90.1876C43.4761 90.886 43.4007 91.6546 43.5477 92.396C43.6946 93.1375 44.0573 93.8186 44.5898 94.3531C45.1224 94.8877 45.8009 95.2518 46.5396 95.3993C47.2783 95.5467 48.0439 95.471 48.7398 95.1817C49.4356 94.8924 50.0303 94.4025 50.4487 93.7739C50.8672 93.1453 51.0905 92.4063 51.0905 91.6503C51.0894 90.6369 50.6878 89.6654 49.9739 88.9488C49.26 88.2322 48.2921 87.8291 47.2825 87.8279Z" fill="#4C6AA3"/>
<path d="M40.1798 91.6499C40.1799 90.775 40.4519 89.9218 40.9579 89.2094C41.4639 88.4969 42.1787 87.9606 43.0026 87.6752C42.3717 87.4567 41.6979 87.3927 41.0373 87.4886C40.3768 87.5844 39.7486 87.8373 39.2051 88.2262C38.6616 88.615 38.2186 89.1286 37.9129 89.7242C37.6072 90.3197 37.4478 90.98 37.4478 91.6499C37.4478 92.3199 37.6072 92.9801 37.9129 93.5756C38.2186 94.1712 38.6616 94.6848 39.2051 95.0737C39.7486 95.4625 40.3768 95.7154 41.0373 95.8113C41.6979 95.9071 42.3717 95.8431 43.0026 95.6246C42.1787 95.3392 41.4639 94.8029 40.9579 94.0904C40.4519 93.378 40.1799 92.5249 40.1798 91.6499Z" fill="#4C6AA3"/>
<path d="M65.8061 145.842C64.8975 145.841 64.0264 145.478 63.3839 144.834C62.7414 144.189 62.3799 143.314 62.3789 142.402V132.082C62.3789 131.169 62.74 130.294 63.3827 129.649C64.0254 129.004 64.8972 128.642 65.8061 128.642C66.7151 128.642 67.5868 129.004 68.2295 129.649C68.8722 130.294 69.2333 131.169 69.2333 132.082V142.402C69.2323 143.314 68.8709 144.189 68.2284 144.833C67.5859 145.478 66.7147 145.841 65.8061 145.842Z" fill="#4C6AA3"/>
<path d="M74.9458 145.842C74.0371 145.841 73.166 145.478 72.5235 144.834C71.881 144.189 71.5196 143.314 71.5186 142.402V132.082C71.5186 131.169 71.8796 130.294 72.5224 129.649C73.1651 129.004 74.0368 128.642 74.9458 128.642C75.8547 128.642 76.7264 129.004 77.3692 129.649C78.0119 130.294 78.373 131.169 78.373 132.082V142.402C78.3719 143.314 78.0105 144.189 77.368 144.833C76.7255 145.478 75.8544 145.841 74.9458 145.842Z" fill="#4C6AA3"/>
<path d="M84.0844 145.842C83.1758 145.841 82.3047 145.478 81.6622 144.834C81.0197 144.189 80.6583 143.314 80.6572 142.402V132.082C80.6572 131.169 81.0183 130.294 81.661 129.649C82.3038 129.004 83.1755 128.642 84.0844 128.642C84.9934 128.642 85.8651 129.004 86.5078 129.649C87.1506 130.294 87.5116 131.169 87.5116 132.082V142.402C87.5106 143.314 87.1492 144.189 86.5067 144.833C85.8642 145.478 84.9931 145.841 84.0844 145.842Z" fill="#4C6AA3"/>
<path d="M98.1743 145.842C97.2656 145.841 96.3945 145.478 95.752 144.834C95.1095 144.189 94.7481 143.314 94.7471 142.402V132.082C94.7471 131.169 95.1082 130.294 95.7509 129.649C96.3936 129.004 97.2653 128.642 98.1743 128.642C99.0832 128.642 99.9549 129.004 100.598 129.649C101.24 130.294 101.601 131.169 101.601 132.082V142.402C101.6 143.314 101.239 144.189 100.597 144.833C99.954 145.478 99.0829 145.841 98.1743 145.842Z" fill="#4C6AA3"/>
<path d="M107.313 145.842C106.405 145.841 105.534 145.478 104.891 144.834C104.249 144.189 103.887 143.314 103.886 142.402V132.082C103.886 131.169 104.247 130.294 104.89 129.649C105.533 129.004 106.404 128.642 107.313 128.642C108.222 128.642 109.094 129.004 109.737 129.649C110.38 130.294 110.741 131.169 110.741 132.082V142.402C110.74 143.314 110.378 144.189 109.736 144.833C109.093 145.478 108.222 145.841 107.313 145.842Z" fill="#4C6AA3"/>
<path d="M116.453 145.842C115.544 145.841 114.673 145.478 114.031 144.834C113.388 144.189 113.027 143.314 113.026 142.402V132.082C113.026 131.169 113.387 130.294 114.03 129.649C114.672 129.004 115.544 128.642 116.453 128.642C117.362 128.642 118.234 129.004 118.876 129.649C119.519 130.294 119.88 131.169 119.88 132.082V142.402C119.879 143.314 119.518 144.189 118.875 144.833C118.233 145.478 117.362 145.841 116.453 145.842Z" fill="#4C6AA3"/>
<path d="M130.542 145.842C129.634 145.841 128.763 145.478 128.12 144.834C127.478 144.189 127.116 143.314 127.115 142.402V132.082C127.115 131.169 127.476 130.294 128.119 129.649C128.762 129.004 129.633 128.642 130.542 128.642C131.451 128.642 132.323 129.004 132.966 129.649C133.609 130.294 133.97 131.169 133.97 132.082V142.402C133.969 143.314 133.607 144.189 132.965 144.833C132.322 145.478 131.451 145.841 130.542 145.842Z" fill="#4C6AA3"/>
<path d="M139.682 145.842C138.773 145.841 137.902 145.478 137.259 144.834C136.617 144.189 136.255 143.314 136.254 142.402V132.082C136.254 131.169 136.615 130.294 137.258 129.649C137.901 129.004 138.773 128.642 139.682 128.642C140.591 128.642 141.462 129.004 142.105 129.649C142.748 130.294 143.109 131.169 143.109 132.082V142.402C143.108 143.314 142.746 144.189 142.104 144.833C141.461 145.478 140.59 145.841 139.682 145.842Z" fill="#4C6AA3"/>
<path d="M148.821 145.842C147.912 145.841 147.041 145.478 146.399 144.834C145.756 144.189 145.395 143.314 145.394 142.402V132.082C145.394 131.169 145.755 130.294 146.397 129.649C147.04 129.004 147.912 128.642 148.821 128.642C149.73 128.642 150.601 129.004 151.244 129.649C151.887 130.294 152.248 131.169 152.248 132.082V142.402C152.247 143.314 151.886 144.189 151.243 144.833C150.601 145.478 149.729 145.841 148.821 145.842Z" fill="#4C6AA3"/>
<path d="M162.911 145.842C162.002 145.841 161.131 145.478 160.488 144.834C159.846 144.189 159.484 143.314 159.483 142.402V132.082C159.483 131.169 159.844 130.294 160.487 129.649C161.13 129.004 162.002 128.642 162.911 128.642C163.82 128.642 164.691 129.004 165.334 129.649C165.977 130.294 166.338 131.169 166.338 132.082V142.402C166.337 143.314 165.975 144.189 165.333 144.833C164.69 145.478 163.819 145.841 162.911 145.842Z" fill="#4C6AA3"/>
<path d="M172.049 145.842C171.141 145.841 170.27 145.478 169.627 144.834C168.985 144.189 168.623 143.314 168.622 142.402V132.082C168.622 131.169 168.983 130.294 169.626 129.649C170.269 129.004 171.14 128.642 172.049 128.642C172.958 128.642 173.83 129.004 174.473 129.649C175.115 130.294 175.476 131.169 175.476 132.082V142.402C175.475 143.314 175.114 144.189 174.472 144.833C173.829 145.478 172.958 145.841 172.049 145.842Z" fill="#4C6AA3"/>
<path d="M181.189 145.842C180.28 145.841 179.409 145.478 178.767 144.834C178.124 144.189 177.763 143.314 177.762 142.402V132.082C177.762 131.169 178.123 130.294 178.766 129.649C179.408 129.004 180.28 128.642 181.189 128.642C182.098 128.642 182.97 129.004 183.612 129.649C184.255 130.294 184.616 131.169 184.616 132.082V142.402C184.615 143.314 184.254 144.189 183.611 144.833C182.969 145.478 182.098 145.841 181.189 145.842Z" fill="#4C6AA3"/>
<path d="M89.0421 184.13H39.7511C39.1403 184.13 38.5546 183.886 38.1227 183.453C37.6909 183.019 37.4482 182.431 37.4482 181.818C37.4482 181.205 37.6909 180.617 38.1227 180.184C38.5546 179.75 39.1403 179.507 39.7511 179.507H89.0421C89.6528 179.507 90.2385 179.75 90.6704 180.184C91.1023 180.617 91.3449 181.205 91.3449 181.818C91.3449 182.431 91.1023 183.019 90.6704 183.453C90.2385 183.886 89.6528 184.13 89.0421 184.13Z" fill="#E6E6E6"/>
<path d="M73.2388 174.192H55.5543C54.9436 174.192 54.3578 173.949 53.926 173.515C53.4941 173.082 53.2515 172.494 53.2515 171.881C53.2515 171.268 53.4941 170.68 53.926 170.246C54.3578 169.813 54.9436 169.569 55.5543 169.569H73.2388C73.8496 169.569 74.4353 169.813 74.8672 170.246C75.299 170.68 75.5416 171.268 75.5416 171.881C75.5416 172.494 75.299 173.082 74.8672 173.515C74.4353 173.949 73.8496 174.192 73.2388 174.192Z" fill="#E6E6E6"/>
<path d="M215.08 104.179H27.3452V104.943H215.08V104.179Z" fill="#111111"/>
</svg>
