<svg width="20" height="20" viewBox="0 0 20 20" fill="none" xmlns="http://www.w3.org/2000/svg">
<path d="M13.3334 6.05271V5.00008C13.3334 3.15913 11.841 1.66675 10.0001 1.66675V1.66675C8.15913 1.66675 6.66675 3.15913 6.66675 5.00008V6.05271" stroke="#111111" stroke-opacity="0.8" stroke-width="2" stroke-linecap="round"/>
<path fill-rule="evenodd" clip-rule="evenodd" d="M17.5 11.7545C17.5 9.34521 17.5 8.14058 16.998 7.23549C16.6348 6.58055 16.095 6.04074 15.44 5.6775C14.535 5.17554 13.3303 5.17554 10.9211 5.17554H9.07895C6.66968 5.17554 5.46504 5.17554 4.55996 5.6775C3.90502 6.04074 3.3652 6.58055 3.00197 7.23549C2.5 8.14058 2.5 9.34521 2.5 11.7545C2.5 14.1638 2.5 15.3684 3.00197 16.2735C3.3652 16.9284 3.90502 17.4682 4.55996 17.8315C5.46504 18.3334 6.66968 18.3334 9.07895 18.3334H10.9211C13.3303 18.3334 14.535 18.3334 15.44 17.8315C16.095 17.4682 16.6348 16.9284 16.998 16.2735C17.5 15.3684 17.5 14.1638 17.5 11.7545ZM10.5 11.3161C10.5 10.8694 10.1807 10.6843 10 10.6843C9.81929 10.6843 9.5 10.8694 9.5 11.3161C9.50012 11.7627 9.81932 11.947 10 11.947C10.1807 11.947 10.4999 11.7627 10.5 11.3161ZM7.5127 11.5847C7.57866 12.2691 7.89381 12.8761 8.36114 13.3036C8.70769 13.6205 9 14.0298 9 14.4995V14.7021C9 15.2544 9.44772 15.7021 10 15.7021C10.5523 15.7021 11 15.2544 11 14.7021V14.4991C11 14.0292 11.2925 13.6198 11.6393 13.3027C12.1064 12.8755 12.4214 12.2689 12.4873 11.5847L12.5 11.3161C12.5 9.86276 11.3807 8.68431 10 8.68431C8.61929 8.68431 7.5 9.86276 7.5 11.3161L7.5127 11.5847Z" fill="#111111" fill-opacity="0.8"/>
</svg>
