<svg width="327" height="240" viewBox="0 0 327 240" fill="none" xmlns="http://www.w3.org/2000/svg">
<rect width="327" height="240" fill="white"/>
<path d="M283 82.2096C279.355 72.2016 273.773 63.0091 266.573 55.1569C259.372 47.3047 250.695 40.9466 241.036 36.4456C231.376 31.9447 220.925 29.3889 210.277 28.9244C199.63 28.4598 188.995 30.0955 178.98 33.7381C168.965 37.3807 159.766 42.9589 151.908 50.1541C144.05 57.3493 137.688 66.0206 133.184 75.673C128.679 85.3254 126.122 95.7699 125.657 106.41C125.192 117.05 126.829 127.677 130.474 137.685L206.737 109.948L283 82.2096Z" fill="#F0F0F0"/>
<path d="M123.111 61.8809C144.6 55.2776 165.202 55.0678 184.35 61.2344L185.261 61.5332C200.231 66.5041 210.485 74.1071 215.898 78.3516L216.915 79.1543L216.916 79.1553C218.042 80.0412 218.793 81.3093 219.029 82.71L219.069 82.9922C219.235 84.4092 218.864 85.8338 218.034 86.9902L217.863 87.2178L217.826 87.2617C216.91 88.3864 215.612 89.1345 214.182 89.3672L213.894 89.4062C212.446 89.5697 210.993 89.197 209.809 88.3652L209.576 88.1924C200.386 80.9889 172.58 59.1794 127.587 72.5312L126.522 72.8535C83.3774 86.111 70.6535 116.588 67.0403 130.417L66.718 131.702L66.7161 131.71C66.4963 132.708 66.0112 133.628 65.3108 134.376C64.6103 135.124 63.7198 135.671 62.7336 135.959L62.7268 135.961C61.8715 136.227 60.9674 136.293 60.0852 136.156L59.7092 136.085C58.8348 135.89 58.0188 135.498 57.3245 134.94L57.0344 134.691C56.376 134.087 55.8685 133.342 55.5481 132.514L55.4221 132.154C55.1181 131.183 55.0773 130.148 55.303 129.155L55.302 129.154C58.9059 114.246 72.5303 77.9302 121.937 62.2471L123.111 61.8809Z" fill="#4C6AA3" stroke="#111111" stroke-width="0.9"/>
<path d="M129.998 84.0566C147.697 78.6181 166.297 79.5307 183.808 86.6719V86.6729C196.964 92.0713 209.166 100.896 217.458 111.004L218.248 111.986C228.671 125.19 232.42 142.378 227.962 155.911L227.743 156.553C224.653 165.339 218.372 171.464 210.029 173.865L209.216 174.085C197.73 176.991 189.794 174.78 183.908 170.554C178.73 166.836 175.107 161.538 172.056 156.651L170.78 154.588L169.539 152.587C166.707 148.073 164.278 144.641 161.339 142.637C158.029 140.379 154.134 139.961 148.476 141.603L147.922 141.769C141.588 143.715 137.516 146.829 135.686 151.341L135.516 151.782C134.341 155.004 134.318 158.653 134.855 162.179C135.326 165.267 136.231 168.287 137.196 170.887L137.612 171.975L137.682 172.15L137.683 172.151C140.544 179.351 145.009 185.812 150.742 191.047V191.048C159.737 199.31 176.367 211.086 197.604 210.347L198.619 210.302H198.623C200.056 210.213 201.467 210.659 202.583 211.546L202.802 211.729C203.877 212.673 204.558 213.98 204.717 215.391L204.741 215.674C204.742 215.689 204.743 215.705 204.744 215.721V215.722C204.791 217.011 204.409 218.281 203.658 219.334C202.907 220.387 201.828 221.164 200.587 221.546L200.56 221.554C200.217 221.662 199.865 221.741 199.508 221.784L199.145 221.816C179.521 222.868 163.457 215.286 152.155 207.254C140.921 199.269 134.42 190.857 133.851 190.107L133.675 189.818L133.668 189.808L133.391 189.378C132.388 187.805 129.04 182.35 126.392 175.248C123.359 167.117 121.275 156.918 124.567 147.929C127.49 139.986 133.845 134.309 143.6 131.086L144.555 130.782C153.826 127.933 161.399 128.674 167.86 132.982L168.482 133.41L168.483 133.411C173.238 136.767 176.508 141.573 179.556 146.492L180.853 148.604C184.408 154.412 187.333 158.9 191.107 161.477C194.81 164.004 199.271 164.659 205.78 163.125L206.417 162.97C212.195 161.511 215.072 157.204 216.476 153.642L216.737 152.94V152.939C220.22 142.942 217.125 129.399 209.035 119.186H209.034C198.693 106.075 169.898 84.3468 134.265 94.8193L133.422 95.0732C118.29 99.723 105.853 108.819 97.4248 121.34L97.0264 121.938C90.2625 132.247 86.2416 144.97 85.916 156.968L85.8955 158.126V158.127C85.8253 169.628 90.5216 182.899 95.2275 193.293C99.8865 203.583 104.585 211.116 104.786 211.43V211.431C105.137 211.989 105.388 212.602 105.529 213.243L105.583 213.521C105.692 214.169 105.688 214.831 105.571 215.478L105.515 215.754C105.366 216.395 105.107 217.006 104.751 217.559L104.593 217.792C104.209 218.328 103.735 218.794 103.192 219.169L102.955 219.324V219.325L102.902 219.357L102.898 219.359C101.664 220.125 100.191 220.41 98.7627 220.165L98.4775 220.108C96.9624 219.771 95.6426 218.854 94.8018 217.558H94.8008C94.3429 216.818 89.1514 208.522 84.085 197.137C79.1517 186.051 74.3604 172.087 74.1387 159.337L74.1318 158.107C74.3539 129.933 91.4339 96.3533 129.104 84.3369L129.998 84.0566Z" fill="#4C6AA3" stroke="#111111" stroke-width="0.9"/>
<path d="M137.083 106.872C156.009 101.057 173.63 105.174 188.196 118.736L188.887 119.389C195.579 125.896 201.021 133.563 204.948 142.012H204.949C205.497 143.343 205.53 144.826 205.049 146.176L204.946 146.444C204.396 147.776 203.373 148.856 202.076 149.481L201.813 149.601C200.48 150.165 198.988 150.218 197.623 149.758L197.351 149.659C196.004 149.13 194.905 148.127 194.258 146.847L194.135 146.587L194.131 146.577L193.812 145.909C190.579 139.246 186.225 133.181 180.938 127.977L180.406 127.459L180.403 127.457L179.861 126.95C168.63 116.609 155.615 113.474 141.165 117.691L140.464 117.901C127.782 121.799 118.929 128.662 114.291 138.341L114.073 138.804C107.698 152.6 110.686 169.664 115.321 180.605L115.774 181.645L115.778 181.653C124.367 199.761 136.24 212.7 153.049 222.35L153.854 222.807C154.511 223.175 155.089 223.669 155.554 224.26C155.961 224.776 156.275 225.358 156.483 225.979L156.565 226.248C156.742 226.88 156.808 227.537 156.761 228.19L156.734 228.47C156.654 229.121 156.463 229.753 156.168 230.339L156.036 230.586C156.021 230.611 156.007 230.637 155.992 230.662C155.296 231.837 154.212 232.733 152.928 233.199L152.669 233.286C151.904 233.522 151.098 233.6 150.301 233.518C149.504 233.435 148.732 233.192 148.032 232.804H148.031C128.635 221.872 115.023 207.177 105.211 186.568L105.181 186.472L105.173 186.446L105.162 186.421L104.874 185.771C98.9653 172.247 95.5256 152.109 103.083 134.898L103.458 134.068C109.387 121.255 120.439 112.166 136.323 107.11L137.083 106.872Z" fill="#4C6AA3" stroke="#111111" stroke-width="0.9"/>
<path d="M153.679 171.815C158.131 171.815 161.74 168.225 161.74 163.796C161.74 159.367 158.131 155.777 153.679 155.777C149.226 155.777 145.617 159.367 145.617 163.796C145.617 168.225 149.226 171.815 153.679 171.815Z" fill="#CFCFCF"/>
<path d="M70.3119 61.3739C72.8577 61.3719 75.3686 61.9656 77.6435 63.1076C79.9185 64.2495 81.8942 65.908 83.4125 67.9501L92.821 55.6571L64.591 34.0811L43 62.2913L55.167 71.5905C56.3846 68.5729 58.4771 65.9879 61.1757 64.1674C63.8743 62.3469 67.0559 61.3741 70.3119 61.3739Z" fill="#F0F0F0"/>
<path d="M235.849 188.833H206.115V211.906H235.849V188.833Z" fill="#4C6AA3"/>
<path d="M238.823 210.093H210.278C209.962 210.093 209.66 209.954 209.437 209.707C209.214 209.46 209.088 209.125 209.088 208.775V187.02C209.088 186.671 209.214 186.335 209.437 186.088C209.66 185.841 209.962 185.702 210.278 185.702H238.823C239.138 185.702 239.44 185.841 239.663 186.088C239.886 186.335 240.012 186.671 240.012 187.02V208.775C240.012 209.125 239.886 209.46 239.663 209.707C239.44 209.954 239.138 210.093 238.823 210.093ZM210.278 187.02V208.775H238.824L238.823 187.02H210.278Z" fill="#3F3D56"/>
<path d="M235.552 186.195H234.363C234.363 183.311 233.329 180.544 231.489 178.504C229.648 176.464 227.153 175.318 224.55 175.318C221.948 175.318 219.452 176.464 217.612 178.504C215.772 180.544 214.738 183.311 214.738 186.195H213.548C213.548 182.961 214.707 179.859 216.771 177.572C218.834 175.284 221.632 174 224.55 174C227.468 174 230.266 175.284 232.33 177.572C234.393 179.859 235.552 182.961 235.552 186.195Z" fill="#3F3D56"/>
<path d="M227.524 195.26C227.524 194.686 227.389 194.122 227.133 193.623C226.876 193.125 226.507 192.709 226.061 192.417C225.615 192.126 225.108 191.968 224.59 191.96C224.073 191.952 223.562 192.095 223.109 192.373C222.656 192.651 222.277 193.055 222.008 193.546C221.739 194.037 221.591 194.597 221.577 195.171C221.564 195.744 221.686 196.312 221.931 196.818C222.176 197.323 222.537 197.749 222.976 198.053V201.591C222.976 201.82 223.017 202.047 223.096 202.258C223.175 202.47 223.291 202.663 223.437 202.825C223.583 202.987 223.757 203.115 223.948 203.203C224.139 203.291 224.343 203.336 224.55 203.336C224.968 203.336 225.368 203.152 225.663 202.825C225.958 202.497 226.124 202.053 226.124 201.591V198.053C226.552 197.757 226.905 197.346 227.15 196.857C227.395 196.369 227.523 195.819 227.524 195.26Z" fill="#3F3D56"/>
<rect width="17.5576" height="17.5576" transform="matrix(0.707355 -0.706859 0.707355 0.706859 60.5637 205.625)" fill="#F0F0F0"/>
</svg>
