<svg width="24" height="24" viewBox="0 0 24 24" fill="none" xmlns="http://www.w3.org/2000/svg">
<path d="M4.92682 8.26827L6.4604 11.0287C6.72416 11.5035 6.85604 11.7409 6.85604 12C6.85604 12.2591 6.72416 12.4965 6.4604 12.9713L4.92681 15.7317C3.71753 17.9084 3.11288 18.9968 3.60131 19.5282C4.08973 20.0596 5.22511 19.5487 7.49585 18.5269L7.49586 18.5269L17.947 13.8238C19.6911 13.039 20.5631 12.6466 20.5631 12C20.5631 11.3534 19.6911 10.961 17.947 10.1762L7.49586 5.47314C5.22511 4.4513 4.08973 3.94038 3.60131 4.47179C3.11288 5.00319 3.71753 6.09155 4.92682 8.26827Z" stroke="#052644" stroke-width="2"/>
</svg>
