<svg width="327" height="240" viewBox="0 0 327 240" fill="none" xmlns="http://www.w3.org/2000/svg">
<rect width="327" height="240" fill="white"/>
<path d="M242.491 112.015C242.051 112.376 241.611 112.721 241.161 113.06H130.027C129.2 112.721 128.375 112.372 127.555 112.015C115.823 106.921 104.903 100.138 95.1432 91.8823C88.6629 86.4049 82.7014 80.7497 78.3795 75.45C72.3499 68.0544 66.7968 59.995 64.2141 50.8119C61.6367 41.6288 62.4067 31.1024 68.1641 23.4873C69.9469 21.1448 72.1386 19.1423 74.6339 17.576C75.0477 17.3147 75.4668 17.0638 75.8962 16.8286C82.8009 12.961 91.5127 12.0202 99.2871 14.022C110.419 16.8913 119.671 24.9037 126.271 34.3011C132.872 43.6933 137.157 54.4809 141.38 65.1484C145.665 46.108 158.641 29.0536 176.17 20.3827C193.693 11.7118 215.465 11.8163 232.616 21.2085C238.013 24.1816 242.888 28.0124 247.049 32.5502C247.463 32.9944 247.866 33.4492 248.264 33.9091C256.63 43.5731 261.864 55.9496 262.293 68.7129C262.843 85.1557 255.205 101.672 242.491 112.015Z" fill="#F2F2F2"/>
<path d="M154.55 113.061H152.979C152.958 112.711 152.932 112.366 152.9 112.016C152.351 105.179 151.201 98.4037 149.464 91.7678C145.478 76.6179 138.669 62.3519 129.394 49.7147C120.146 37.037 108.486 26.2997 95.081 18.1148C94.9829 18.0587 94.8989 17.9811 94.8354 17.8878C94.7719 17.7945 94.7305 17.6881 94.7144 17.5764C94.6888 17.4305 94.7052 17.2803 94.7619 17.1433C94.8185 17.0063 94.913 16.8882 95.0343 16.8028C95.1557 16.7173 95.2988 16.668 95.4472 16.6606C95.5955 16.6533 95.7429 16.6881 95.8721 16.7611C95.9082 16.7819 95.9431 16.8046 95.9768 16.829C103.572 21.4475 110.622 26.9035 116.994 33.0942C128.393 44.1882 137.585 57.3344 144.084 71.8388C149.817 84.5419 153.329 98.1304 154.467 112.016C154.498 112.366 154.524 112.716 154.55 113.061Z" fill="white"/>
<path d="M268.345 33.9094C268.333 33.9153 268.321 33.9188 268.308 33.9198C267.161 34.1289 266.008 34.3484 264.866 34.5836C255.491 36.5044 246.315 39.2846 237.452 42.8887C228.613 46.4877 220.111 50.8602 212.045 55.9551C203.968 61.0474 196.352 66.8325 189.283 73.2447C182.213 79.6476 175.729 86.6649 169.905 94.2137C165.552 99.8696 161.595 105.818 158.06 112.015C157.861 112.36 157.667 112.711 157.473 113.061H155.677C155.865 112.711 156.059 112.36 156.258 112.015C160.534 104.421 165.437 97.1957 170.916 90.414C176.975 82.9086 183.691 75.956 190.985 69.6383C198.233 63.3563 206.012 57.7115 214.234 52.7669C222.491 47.8024 231.173 43.5767 240.176 40.1395C248.914 36.8069 257.935 34.2669 267.129 32.5505C267.386 32.5034 267.637 32.4564 267.894 32.4094C268.874 32.2316 269.293 33.7056 268.345 33.9094Z" fill="white"/>
<rect x="28.45" y="112.003" width="269.1" height="114.547" stroke="black" stroke-width="0.9"/>
<path d="M82.751 199.822C76.7415 199.822 70.8671 198.044 65.8704 194.713C60.8737 191.382 56.9793 186.647 54.6796 181.108C52.3799 175.569 51.7782 169.474 52.9505 163.594C54.1229 157.713 57.0167 152.312 61.2661 148.072C65.5154 143.833 70.9293 140.946 76.8233 139.776C82.7173 138.606 88.8265 139.206 94.3785 141.501C99.9305 143.795 104.676 147.681 108.015 152.666C111.353 157.651 113.135 163.512 113.135 169.508C113.126 177.545 109.922 185.25 104.226 190.933C98.5297 196.616 90.8066 199.813 82.751 199.822ZM82.751 140.239C76.9488 140.239 71.2768 141.955 66.4525 145.171C61.6281 148.387 57.868 152.959 55.6476 158.307C53.4272 163.655 52.8462 169.54 53.9781 175.218C55.1101 180.895 57.9041 186.11 62.0069 190.204C66.1097 194.297 71.337 197.085 77.0277 198.214C82.7185 199.343 88.617 198.764 93.9776 196.548C99.3381 194.333 103.92 190.582 107.143 185.768C110.367 180.955 112.088 175.296 112.088 169.508C112.079 161.748 108.985 154.308 103.485 148.821C97.9856 143.334 90.5288 140.247 82.751 140.239Z" fill="#111111"/>
<path d="M266.876 150.169H145.863C144.171 150.17 142.546 150.824 141.327 151.994C140.108 153.164 139.391 154.76 139.325 156.446C139.316 156.531 139.313 156.617 139.314 156.702C139.317 158.434 140.008 160.094 141.235 161.319C142.463 162.544 144.127 163.233 145.863 163.235H266.876C268.613 163.235 270.278 162.547 271.506 161.322C272.734 160.097 273.424 158.435 273.424 156.702C273.424 154.969 272.734 153.308 271.506 152.082C270.278 150.857 268.613 150.169 266.876 150.169Z" fill="#052644"/>
<path d="M266.876 175.779H145.863C144.171 175.78 142.546 176.434 141.327 177.605C140.108 178.775 139.391 180.37 139.325 182.056C139.316 182.141 139.313 182.227 139.314 182.313C139.317 184.044 140.008 185.705 141.235 186.93C142.463 188.154 144.127 188.843 145.863 188.846H266.876C268.613 188.846 270.278 188.157 271.506 186.932C272.734 185.707 273.424 184.045 273.424 182.313C273.424 180.58 272.734 178.918 271.506 177.693C270.278 176.468 268.613 175.779 266.876 175.779Z" fill="#052644"/>
<path d="M79.3617 182.753C78.5139 182.755 77.6886 182.481 77.0102 181.974L76.9682 181.942L68.1127 175.178C67.7026 174.865 67.3584 174.474 67.0998 174.027C66.8411 173.581 66.6731 173.088 66.6053 172.577C66.5375 172.066 66.5713 171.547 66.7046 171.049C66.838 170.551 67.0684 170.084 67.3826 169.675C67.6968 169.266 68.0888 168.922 68.536 168.664C68.9833 168.406 69.4771 168.239 69.9893 168.171C70.5015 168.103 71.022 168.137 71.5211 168.27C72.0203 168.403 72.4883 168.633 72.8984 168.947L78.6343 173.335L92.1891 155.698C92.5034 155.289 92.8955 154.946 93.3428 154.688C93.7902 154.43 94.2841 154.262 94.7963 154.195C95.3085 154.127 95.829 154.161 96.3281 154.295C96.8272 154.428 97.2951 154.658 97.7051 154.971L97.6208 155.086L97.7072 154.973C98.5343 155.607 99.0754 156.543 99.2119 157.575C99.3484 158.606 99.0692 159.65 98.4354 160.476L82.4917 181.221C82.123 181.699 81.6488 182.086 81.106 182.352C80.5632 182.618 79.9663 182.755 79.3617 182.753Z" fill="#052644"/>
<path d="M237.094 88.4693C226.15 86.9675 215.036 87.2175 204.172 89.2098C193.338 91.1857 182.88 94.8338 173.173 100.023C167.718 102.947 162.54 106.36 157.704 110.22C156.914 110.849 158.032 111.952 158.815 111.328C167.301 104.593 176.814 99.258 186.992 95.5254C197.09 91.7994 207.703 89.6512 218.458 89.1567C224.543 88.8779 230.641 89.1539 236.676 89.9812C236.877 90.0292 237.088 89.9993 237.268 89.8977C237.447 89.796 237.581 89.6302 237.643 89.4337C237.697 89.2332 237.67 89.0195 237.567 88.839C237.464 88.6585 237.294 88.5256 237.094 88.4693H237.094Z" fill="white"/>
</svg>
