<svg width="327" height="240" viewBox="0 0 327 240" fill="none" xmlns="http://www.w3.org/2000/svg">
<rect width="327" height="240" fill="white"/>
<path d="M64.4506 219.416C64.1572 219.43 63.8668 219.352 63.6187 219.195C63.3706 219.038 63.1768 218.808 63.0635 218.537C62.9502 218.266 62.9229 217.966 62.9854 217.679C63.0478 217.392 63.197 217.13 63.4126 216.931L63.5107 216.54C63.4978 216.509 63.4848 216.478 63.4717 216.446C63.1762 215.748 62.681 215.152 62.0484 214.734C61.4157 214.316 60.6738 214.094 59.9158 214.097C59.1578 214.1 58.4175 214.327 57.788 214.75C57.1584 215.172 56.6677 215.772 56.3774 216.473C55.217 219.271 53.7397 222.073 53.376 225.032C53.2158 226.339 53.2834 227.665 53.5757 228.95C50.8505 222.998 49.4353 216.529 49.4262 209.981C49.4256 208.338 49.5168 206.696 49.6993 205.063C49.8501 203.725 50.0594 202.396 50.327 201.076C51.7877 193.917 54.9239 187.206 59.478 181.496C61.6822 180.292 63.4647 178.44 64.5854 176.19C64.9914 175.382 65.2784 174.518 65.4374 173.628C65.1887 173.66 64.4998 169.869 64.6874 169.636C64.3409 169.11 63.7207 168.848 63.3422 168.334C61.4601 165.78 58.867 166.226 57.5133 169.698C54.6215 171.159 54.5935 173.582 56.3679 175.913C57.4968 177.396 57.6519 179.402 58.6424 180.99C58.5405 181.12 58.4345 181.247 58.3326 181.377C56.4698 183.776 54.8462 186.351 53.4851 189.066C53.8161 186.024 53.4211 182.947 52.3325 180.088C51.2292 177.423 49.1613 175.179 47.3403 172.875C45.1529 170.108 40.6675 171.316 40.2821 174.823C40.2784 174.857 40.2747 174.891 40.2712 174.925C40.5417 175.078 40.8064 175.24 41.0655 175.412C41.391 175.629 41.6431 175.94 41.789 176.304C41.9349 176.668 41.9676 177.067 41.883 177.45C41.7983 177.832 41.6002 178.18 41.3145 178.448C41.0289 178.716 40.6691 178.891 40.2823 178.951L40.2427 178.957C40.339 179.933 40.5093 180.901 40.7522 181.851C38.416 190.896 43.4596 194.191 50.6613 194.339C50.8203 194.42 50.9752 194.502 51.1342 194.579C49.7667 198.459 48.909 202.501 48.5825 206.602C48.3977 209.022 48.4086 211.452 48.6151 213.87L48.6029 213.785C48.0811 211.096 46.6485 208.67 44.5471 206.916C41.4259 204.349 37.0163 203.404 33.6491 201.341C33.2913 201.111 32.8752 200.988 32.45 200.987C32.0247 200.986 31.608 201.107 31.2491 201.335C30.8901 201.563 30.6038 201.889 30.424 202.275C30.2442 202.661 30.1783 203.09 30.2342 203.512C30.2387 203.542 30.2433 203.572 30.2479 203.602C30.7499 203.807 31.2386 204.043 31.7113 204.308C31.9817 204.461 32.2465 204.623 32.5056 204.795C32.831 205.013 33.0832 205.324 33.2291 205.687C33.3749 206.051 33.4077 206.45 33.323 206.833C33.2383 207.215 33.0402 207.563 32.7546 207.831C32.469 208.099 32.1092 208.275 31.7223 208.334L31.6827 208.34C31.6542 208.345 31.6297 208.349 31.6012 208.353C32.4589 210.403 33.6626 212.29 35.1597 213.931C36.6204 221.828 42.8944 222.577 49.6056 220.277H49.6097C50.346 223.481 51.4129 226.599 52.7932 229.582H64.1656C64.2064 229.456 64.2431 229.325 64.2798 229.198C63.2271 229.265 62.1703 229.202 61.1329 229.011C61.9767 227.974 62.8205 226.929 63.6643 225.893C63.6831 225.873 63.7008 225.853 63.7173 225.832C64.1453 225.301 64.5773 224.775 65.0053 224.244L65.0055 224.243C65.0284 222.617 64.842 220.995 64.451 219.416L64.4506 219.416Z" fill="#F2F2F2"/>
<path d="M261.505 219.416C261.798 219.43 262.089 219.352 262.337 219.195C262.585 219.038 262.779 218.808 262.892 218.537C263.005 218.266 263.032 217.966 262.97 217.679C262.908 217.392 262.758 217.13 262.543 216.931L262.445 216.54C262.458 216.509 262.471 216.478 262.484 216.446C262.779 215.748 263.274 215.152 263.907 214.734C264.54 214.316 265.282 214.094 266.04 214.097C266.798 214.1 267.538 214.327 268.167 214.75C268.797 215.172 269.288 215.772 269.578 216.473C270.738 219.271 272.216 222.073 272.579 225.032C272.74 226.339 272.672 227.665 272.38 228.95C275.105 222.998 276.52 216.529 276.529 209.981C276.53 208.338 276.439 206.696 276.256 205.063C276.105 203.725 275.896 202.396 275.628 201.076C274.168 193.917 271.032 187.206 266.477 181.496C264.273 180.292 262.491 178.44 261.37 176.19C260.964 175.382 260.677 174.518 260.518 173.628C260.767 173.66 261.456 169.869 261.268 169.636C261.615 169.11 262.235 168.848 262.613 168.334C264.495 165.78 267.088 166.226 268.442 169.698C271.334 171.159 271.362 173.582 269.588 175.913C268.459 177.396 268.304 179.402 267.313 180.99C267.415 181.12 267.521 181.247 267.623 181.377C269.486 183.776 271.109 186.351 272.47 189.066C272.139 186.024 272.534 182.947 273.623 180.088C274.726 177.423 276.794 175.179 278.615 172.875C280.803 170.108 285.288 171.316 285.673 174.823C285.677 174.857 285.681 174.891 285.684 174.925C285.414 175.078 285.149 175.24 284.89 175.412C284.564 175.629 284.312 175.94 284.166 176.304C284.021 176.668 283.988 177.067 284.072 177.45C284.157 177.832 284.355 178.18 284.641 178.448C284.927 178.716 285.286 178.891 285.673 178.951L285.713 178.957C285.616 179.933 285.446 180.901 285.203 181.851C287.539 190.896 282.496 194.191 275.294 194.339C275.135 194.42 274.98 194.502 274.821 194.579C276.189 198.459 277.046 202.501 277.373 206.602C277.558 209.022 277.547 211.452 277.34 213.87L277.353 213.785C277.874 211.096 279.307 208.67 281.408 206.916C284.53 204.349 288.939 203.404 292.306 201.341C292.664 201.111 293.08 200.988 293.506 200.987C293.931 200.986 294.347 201.107 294.706 201.335C295.065 201.563 295.352 201.889 295.531 202.275C295.711 202.661 295.777 203.09 295.721 203.512C295.717 203.542 295.712 203.572 295.708 203.602C295.206 203.807 294.717 204.043 294.244 204.308C293.974 204.461 293.709 204.623 293.45 204.795C293.124 205.013 292.872 205.324 292.726 205.687C292.581 206.051 292.548 206.45 292.632 206.833C292.717 207.215 292.915 207.563 293.201 207.831C293.486 208.099 293.846 208.275 294.233 208.334L294.273 208.34C294.301 208.345 294.326 208.349 294.354 208.353C293.497 210.403 292.293 212.29 290.796 213.931C289.335 221.828 283.061 222.577 276.35 220.277H276.346C275.609 223.481 274.543 226.599 273.162 229.582H261.79C261.749 229.456 261.712 229.325 261.676 229.198C262.728 229.265 263.785 229.202 264.823 229.011C263.979 227.974 263.135 226.929 262.291 225.893C262.272 225.873 262.255 225.853 262.238 225.832C261.81 225.301 261.378 224.775 260.95 224.244L260.95 224.243C260.927 222.617 261.113 220.995 261.504 219.416L261.505 219.416Z" fill="#F2F2F2"/>
<path d="M74.3335 229.035H89.0114C91.5218 218.468 89.0248 193.496 92.3337 183.289C98.682 163.718 106.792 143.069 121.929 133.513C128.392 129.433 135.439 127.839 142.636 127.926C152.578 128.044 162.799 131.38 172.157 135.801C175.985 137.606 179.778 139.59 183.556 141.618C197.789 149.264 211.868 157.592 227.175 159.843C246.545 162.689 269.318 151.856 274.608 128.521C278.645 110.656 271.374 92.1084 263.748 76.153C256.122 60.1976 247.598 43.126 248.99 24.653C248.995 24.591 249 24.5228 249.01 24.4608C249.534 17.8256 252.703 13.0571 257.13 10H237.856C237.601 27.2328 245.576 42.4439 252.753 57.4629C260.379 73.4121 267.651 91.9657 263.613 109.831C258.323 133.159 214.517 105.814 195.148 102.961C189.678 102.161 198.367 105.008 193.151 102.961C184.972 99.7552 184.065 129.16 176.104 124.844C171.148 122.153 166.188 119.48 161.162 117.105C159.081 116.119 156.955 115.195 154.804 114.339C154.799 114.339 154.799 114.339 154.794 114.333C140.35 108.616 124.554 106.389 111.209 114.655C111.119 114.711 111.024 114.767 110.934 114.823C95.7974 124.373 87.6873 145.022 81.339 164.593C76.0937 180.771 76.9187 211.97 74.3335 229.035Z" fill="#F2F2F2"/>
<path d="M169.994 228.785C216.544 228.785 254.281 191.004 254.281 144.398C254.281 97.7921 216.544 60.0107 169.994 60.0107C123.443 60.0107 85.7065 97.7921 85.7065 144.398C85.7065 191.004 123.443 228.785 169.994 228.785Z" fill="white"/>
<path d="M169.753 229.327C86.3593 231.245 84.5308 191.579 84.5308 144.398C84.5308 97.2181 122.869 58.834 169.994 58.834C217.118 58.834 255.456 97.2181 255.456 144.398C255.456 191.579 216.877 229.327 169.753 229.327ZM169.994 61.1884C124.166 61.1884 87.6541 98.5225 86.8823 144.398C86.1645 187.068 131.44 240.313 169.994 227.608C190.669 204.811 249.123 180.257 253.105 144.398C258.169 98.797 215.822 61.1884 169.994 61.1884V61.1884Z" fill="#22C55E"/>
<path d="M158.495 188.317C157.04 188.317 155.604 187.978 154.302 187.326C153.001 186.674 151.868 185.728 150.995 184.562L128.001 153.865C127.261 152.879 126.723 151.757 126.417 150.562C126.111 149.368 126.043 148.125 126.217 146.904C126.391 145.683 126.803 144.509 127.431 143.448C128.058 142.387 128.888 141.46 129.874 140.72C130.859 139.98 131.98 139.442 133.173 139.136C134.366 138.831 135.608 138.763 136.827 138.938C138.046 139.112 139.219 139.526 140.278 140.155C141.338 140.783 142.263 141.615 143.002 142.601L158.046 162.682L196.684 104.657C198.064 102.586 200.209 101.15 202.647 100.662C205.084 100.175 207.615 100.677 209.684 102.057C211.752 103.438 213.188 105.584 213.676 108.024C214.164 110.465 213.665 112.999 212.287 115.071L166.297 184.137C165.465 185.386 164.346 186.417 163.034 187.144C161.722 187.871 160.255 188.272 158.756 188.314C158.669 188.316 158.582 188.317 158.495 188.317Z" fill="#F2F2F2"/>
<path d="M30 229.518C29.9998 229.581 30.0111 229.644 30.0332 229.702C30.0553 229.761 30.0878 229.814 30.1288 229.859C30.1698 229.904 30.2185 229.94 30.2721 229.964C30.3257 229.988 30.3831 230 30.4411 230H295.559C295.676 230 295.788 229.949 295.871 229.859C295.954 229.768 296 229.646 296 229.518C296 229.39 295.954 229.267 295.871 229.176C295.788 229.086 295.676 229.035 295.559 229.035H30.4411C30.3831 229.035 30.3257 229.047 30.2721 229.072C30.2185 229.096 30.1698 229.131 30.1288 229.176C30.0878 229.221 30.0553 229.274 30.0332 229.333C30.0111 229.391 29.9998 229.454 30 229.518Z" fill="#CCCCCC"/>
<path d="M185.267 178.239C183.812 178.239 182.376 177.9 181.074 177.248C179.773 176.596 178.64 175.65 177.767 174.484L154.773 143.787C154.033 142.801 153.495 141.679 153.189 140.484C152.883 139.29 152.815 138.047 152.989 136.826C153.163 135.605 153.575 134.431 154.203 133.37C154.83 132.309 155.66 131.382 156.645 130.642C157.631 129.902 158.752 129.364 159.945 129.058C161.138 128.752 162.38 128.685 163.599 128.86C164.818 129.034 165.991 129.448 167.05 130.077C168.11 130.705 169.035 131.537 169.774 132.523L184.818 152.604L223.456 94.5785C224.139 93.5528 225.017 92.6718 226.04 91.9859C227.063 91.3 228.211 90.8225 229.419 90.5807C230.626 90.339 231.869 90.3377 233.077 90.5769C234.285 90.8161 235.434 91.2912 236.458 91.975C237.483 92.6588 238.363 93.5379 239.048 94.5622C239.733 95.5864 240.21 96.7358 240.451 97.9446C240.693 99.1534 240.694 100.398 240.455 101.607C240.216 102.817 239.742 103.967 239.059 104.993L193.069 174.059C192.237 175.308 191.118 176.339 189.806 177.066C188.494 177.793 187.027 178.194 185.528 178.236C185.441 178.238 185.354 178.239 185.267 178.239Z" fill="#22C55E"/>
</svg>
